<svg xmlns="http://www.w3.org/2000/svg" version="1.1" xmlns:xlink="http://www.w3.org/1999/xlink" xmlns:svgjs="http://svgjs.dev/svgjs" width="1500" height="1500" viewBox="0 0 1500 1500"><rect width="1500" height="1500" fill="#fafafa"></rect><g transform="matrix(0.6666666666666666,0,0,0.6666666666666666,249.39393939393938,612.6449376876383)"><svg viewBox="0 0 396 108" data-background-color="#fafafa" preserveAspectRatio="xMidYMid meet" height="409" width="1500" xmlns="http://www.w3.org/2000/svg" xmlns:xlink="http://www.w3.org/1999/xlink"><g id="tight-bounds" transform="matrix(1,0,0,1,0.2400000000000091,0.4046946078303506)"><svg viewBox="0 0 395.52 107.1906107843393" height="107.1906107843393" width="395.52"><g><svg viewBox="0 0 514.1241965221806 139.33375466277363" height="107.1906107843393" width="395.52"><g transform="matrix(1,0,0,1,0,2.4532957285051964)"><svg viewBox="0 0 395.52 134.42716320576324" height="134.42716320576324" width="395.52"><g id="textblocktransform"><svg viewBox="0 0 395.52 134.42716320576324" height="134.42716320576324" width="395.52" id="textblock"><g><svg viewBox="0 0 395.52 109.15262303937763" height="109.15262303937763" width="395.52"><rect width="395.52" height="109.15262303937763" x="0" y="0" opacity="1" fill="#130912" data-fill-palette-color="tertiary"></rect><g transform="matrix(1,0,0,1,23.461705032,23.461705032000005)"><svg width="348.596589936" viewBox="4.4 -37.9 215.93 38.55" height="62.22921297537762" data-palette-color="#fafafa"><path d="M4.4 0L4.4-34.1 12.25-34.1Q18.75-34.1 21.88-31.8 25-29.5 25-24.05L25-24.05Q25-21.05 23.85-19.05 22.7-17.05 20.98-15.83 19.25-14.6 17.25-14.08 15.25-13.55 13.55-13.55L13.55-13.55 8.6-13.55 8.6 0 4.4 0ZM8.6-30.35L8.6-17.3 13.2-17.3Q14.9-17.3 16.28-17.63 17.65-17.95 18.65-18.73 19.65-19.5 20.2-20.83 20.75-22.15 20.75-24.15L20.75-24.15Q20.75-26.15 20.18-27.38 19.6-28.6 18.48-29.25 17.35-29.9 15.65-30.13 13.95-30.35 11.7-30.35L11.7-30.35 8.6-30.35ZM47.8-3.95L48.55-0.6Q47.4-0.25 46.17 0 44.95 0.25 43.47 0.45 42 0.65 40.4 0.65L40.4 0.65Q37.9 0.65 35.75-0.05 33.6-0.75 32-2.3 30.4-3.85 29.47-6.33 28.55-8.8 28.55-12.4L28.55-12.4Q28.55-15.65 29.45-18.13 30.35-20.6 31.92-22.28 33.5-23.95 35.62-24.8 37.75-25.65 40.25-25.65L40.25-25.65Q42.7-25.65 44.5-24.7 46.3-23.75 47.47-22.13 48.65-20.5 49.22-18.32 49.8-16.15 49.8-13.75L49.8-13.75 49.05-11.55 32.9-11.55Q32.9-10 33.3-8.45 33.7-6.9 34.67-5.65 35.65-4.4 37.22-3.63 38.8-2.85 41.15-2.85L41.15-2.85Q42.65-2.85 43.9-3.03 45.15-3.2 46.07-3.43 47-3.65 47.8-3.95L47.8-3.95ZM33.05-14.75L45.65-14.75Q45.65-15.1 45.5-16.3 45.35-17.5 44.8-18.8 44.25-20.1 43.1-21.13 41.95-22.15 40.05-22.15L40.05-22.15Q37.95-22.15 36.6-21.28 35.25-20.4 34.45-19.2 33.65-18 33.35-16.75 33.05-15.5 33.05-14.75L33.05-14.75ZM73.09-3.95L73.84-0.6Q72.7-0.25 71.47 0 70.25 0.25 68.77 0.45 67.3 0.65 65.7 0.65L65.7 0.65Q63.2 0.65 61.05-0.05 58.9-0.75 57.3-2.3 55.7-3.85 54.77-6.33 53.85-8.8 53.85-12.4L53.85-12.4Q53.85-15.65 54.75-18.13 55.65-20.6 57.22-22.28 58.8-23.95 60.92-24.8 63.05-25.65 65.55-25.65L65.55-25.65Q68-25.65 69.8-24.7 71.59-23.75 72.77-22.13 73.95-20.5 74.52-18.32 75.09-16.15 75.09-13.75L75.09-13.75 74.34-11.55 58.2-11.55Q58.2-10 58.6-8.45 59-6.9 59.97-5.65 60.95-4.4 62.52-3.63 64.09-2.85 66.45-2.85L66.45-2.85Q67.95-2.85 69.2-3.03 70.45-3.2 71.37-3.43 72.3-3.65 73.09-3.95L73.09-3.95ZM58.35-14.75L70.95-14.75Q70.95-15.1 70.8-16.3 70.65-17.5 70.09-18.8 69.55-20.1 68.4-21.13 67.25-22.15 65.34-22.15L65.34-22.15Q63.25-22.15 61.9-21.28 60.55-20.4 59.75-19.2 58.95-18 58.65-16.75 58.35-15.5 58.35-14.75L58.35-14.75ZM80.59 0L80.59-21.1Q80.59-22.25 80.34-24.7L80.34-24.7 84.04-25.2 84.44-21.55 84.49-21.55Q85.39-22.7 86.24-23.55 87.09-24.4 88.02-25.03 88.94-25.65 89.79-25.65L89.79-25.65Q90.94-25.7 92.99-25.4L92.99-25.4 92.09-21.55Q90.44-21.85 89.79-21.8L89.79-21.8Q88.94-21.8 87.99-21 87.04-20.2 86.34-19.3L86.34-19.3Q85.44-18.2 84.59-16.8L84.59-16.8 84.59 0 80.59 0ZM124.84-33.15L124.14-29.3Q121.94-29.75 119.47-30.15 116.99-30.55 113.74-30.65L113.74-30.65Q110.44-30.6 108.04-29.65 105.64-28.7 104.12-26.93 102.59-25.15 101.84-22.7 101.09-20.25 101.09-17.3L101.09-17.3Q101.09-13.5 102.07-10.8 103.04-8.1 104.77-6.38 106.49-4.65 108.79-3.85 111.09-3.05 113.74-3.05L113.74-3.05Q115.44-3.05 116.82-3.25 118.19-3.45 119.22-3.73 120.24-4 121.09-4.35L121.09-4.35 121.09-13.5 114.84-13.5 114.84-17.25 125.34-17.25 125.34-2.3Q123.59-1.15 120.52-0.23 117.44 0.7 113.74 0.65L113.74 0.65Q110.34 0.65 107.22-0.15 104.09-0.95 101.67-2.98 99.24-5 97.79-8.5 96.34-12 96.34-17.35L96.34-17.35Q96.34-21.7 97.69-24.93 99.04-28.15 101.37-30.28 103.69-32.4 106.77-33.48 109.84-34.55 113.29-34.55L113.29-34.55Q115.54-34.55 117.64-34.33 119.74-34.1 121.49-33.83 123.24-33.55 124.84-33.15L124.84-33.15ZM132.04 0L132.04-21.1Q132.04-22.25 131.79-24.7L131.79-24.7 135.49-25.2 135.89-21.55 135.94-21.55Q136.84-22.7 137.69-23.55 138.54-24.4 139.46-25.03 140.39-25.65 141.24-25.65L141.24-25.65Q142.39-25.7 144.44-25.4L144.44-25.4 143.54-21.55Q141.89-21.85 141.24-21.8L141.24-21.8Q140.39-21.8 139.44-21 138.49-20.2 137.79-19.3L137.79-19.3Q136.89-18.2 136.04-16.8L136.04-16.8 136.04 0 132.04 0ZM162.49-5.85L162.49-11.55Q161.49-11.5 160.59-11.45 159.69-11.4 158.81-11.33 157.94-11.25 157.24-11.15L157.24-11.15Q153.64-10.7 152.14-9.58 150.64-8.45 150.64-6.35L150.64-6.35Q150.64-4.6 151.71-3.73 152.79-2.85 154.54-2.85L154.54-2.85Q156.94-2.85 158.81-3.68 160.69-4.5 162.49-5.85L162.49-5.85ZM162.94 0.4L162.44-2.35Q160.09-1 158.06-0.18 156.04 0.65 153.69 0.65L153.69 0.65Q150.34 0.65 148.36-0.98 146.39-2.6 146.39-6.35L146.39-6.35Q146.39-8.3 147.39-9.75 148.39-11.2 150.01-12.18 151.64-13.15 153.69-13.7 155.74-14.25 157.89-14.4L157.89-14.4Q158.79-14.5 160.24-14.58 161.69-14.65 162.49-14.7L162.49-14.7Q162.49-16.45 162.39-17.82 162.29-19.2 161.79-20.18 161.29-21.15 160.31-21.65 159.34-22.15 157.54-22.15L157.54-22.15Q156.09-22.15 154.74-21.98 153.39-21.8 152.34-21.6L152.34-21.6Q151.09-21.35 150.04-21.05L150.04-21.05 149.24-24.5Q150.49-24.8 151.94-25.05L151.94-25.05Q153.19-25.3 154.84-25.48 156.49-25.65 158.39-25.65L158.39-25.65Q160.94-25.65 162.51-24.9 164.09-24.15 164.96-22.88 165.84-21.6 166.16-19.98 166.49-18.35 166.49-16.55L166.49-16.55 166.49-4.55Q166.49-3.85 166.51-3.08 166.54-2.3 166.61-1.55 166.69-0.8 166.79 0L166.79 0 162.94 0.4ZM189.23-5.5L189.23-21.4Q187.43-21.9 186.43-22.03 185.43-22.15 184.38-22.15L184.38-22.15Q182.28-22.15 180.78-21.4 179.28-20.65 178.31-19.33 177.33-18 176.88-16.28 176.43-14.55 176.43-12.6L176.43-12.6Q176.43-10.85 176.81-9.1 177.18-7.35 177.98-5.95 178.78-4.55 179.93-3.7 181.08-2.85 182.68-2.85L182.68-2.85Q183.78-2.85 184.96-3.25 186.13-3.65 187.13-4.17 188.13-4.7 189.23-5.5L189.23-5.5ZM189.68 0.4L189.28-2Q188.13-1.2 187.06-0.68 185.98-0.15 184.71 0.25 183.43 0.65 182.23 0.65L182.23 0.65Q177.53 0.65 174.86-2.68 172.18-6 172.18-12.4L172.18-12.4Q172.18-16.2 173.41-18.75 174.63-21.3 176.48-22.83 178.33-24.35 180.46-25 182.58-25.65 184.38-25.65L184.38-25.65Q185.28-25.65 186.28-25.53 187.28-25.4 189.23-24.9L189.23-24.9 189.23-37.45 193.23-37.9 193.23-4.55Q193.23-3.85 193.26-3.08 193.28-2.3 193.36-1.55 193.43-0.8 193.53 0L193.53 0 189.68 0.4ZM218.33-3.95L219.08-0.6Q217.93-0.25 216.71 0 215.48 0.25 214.01 0.45 212.53 0.65 210.93 0.65L210.93 0.65Q208.43 0.65 206.28-0.05 204.13-0.75 202.53-2.3 200.93-3.85 200.01-6.33 199.08-8.8 199.08-12.4L199.08-12.4Q199.08-15.65 199.98-18.13 200.88-20.6 202.46-22.28 204.03-23.95 206.16-24.8 208.28-25.65 210.78-25.65L210.78-25.65Q213.23-25.65 215.03-24.7 216.83-23.75 218.01-22.13 219.18-20.5 219.76-18.32 220.33-16.15 220.33-13.75L220.33-13.75 219.58-11.55 203.43-11.55Q203.43-10 203.83-8.45 204.23-6.9 205.21-5.65 206.18-4.4 207.76-3.63 209.33-2.85 211.68-2.85L211.68-2.85Q213.18-2.85 214.43-3.03 215.68-3.2 216.61-3.43 217.53-3.65 218.33-3.95L218.33-3.95ZM203.58-14.75L216.18-14.75Q216.18-15.1 216.03-16.3 215.88-17.5 215.33-18.8 214.78-20.1 213.63-21.13 212.48-22.15 210.58-22.15L210.58-22.15Q208.48-22.15 207.13-21.28 205.78-20.4 204.98-19.2 204.18-18 203.88-16.75 203.58-15.5 203.58-14.75L203.58-14.75Z" opacity="1" transform="matrix(1,0,0,1,0,0)" fill="#fafafa" class="wordmark-text-0" data-fill-palette-color="quaternary" id="text-0"></path></svg></g></svg></g><g transform="matrix(1,0,0,1,68.62272000000002,120.88347555537763)"><svg viewBox="0 0 326.89727999999997 13.543687650385602" height="13.543687650385602" width="326.89727999999997"><g transform="matrix(1,0,0,1,0,0)"><svg width="326.89727999999997" viewBox="4.5 -36.75 1166.89 48.35" height="13.543687650385602" data-palette-color="#130912"><path d="M25.5 0L4.5 0 4.5-35 25.5-35 25.5-30.9 9.25-30.9 9.25-20.25 23.25-20.25 23.25-16.25 9.25-16.25 9.25-4.1 25.5-4.1 25.5 0ZM35.75 0L31.25 0 31.25-26 35.6-26 35.6-21.65Q37-23.75 39.15-25.18 41.3-26.6 44.05-26.6L44.05-26.6Q47.15-26.6 49.12-25.1 51.1-23.6 51.9-21.1L51.9-21.1Q53.45-23.4 55.57-25 57.7-26.6 60.85-26.6L60.85-26.6Q65.1-26.6 67.17-23.93 69.25-21.25 69.25-16.95L69.25-16.95 69.25 0 64.75 0 64.75-16.6Q64.75-19.3 63.5-20.98 62.25-22.65 60.05-22.65L60.05-22.65Q57.8-22.65 55.87-20.98 53.95-19.3 52.5-17.05L52.5-17.05 52.5 0 48 0 48-16.6Q48-19.3 46.75-20.98 45.5-22.65 43.3-22.65L43.3-22.65Q41.1-22.65 39.15-21.03 37.2-19.4 35.75-17.2L35.75-17.2 35.75 0ZM82.45 11L77.95 11 77.95-19.35Q77.95-21.05 77.12-21.78 76.3-22.5 75-22.5L75-22.5 75.95-26Q80.55-26 81.7-22.35L81.7-22.35Q82.2-23.1 83.32-24.1 84.45-25.1 86.12-25.85 87.8-26.6 89.95-26.6L89.95-26.6Q92.95-26.6 95.57-25.03 98.2-23.45 99.8-20.48 101.4-17.5 101.4-13.25L101.4-13.25Q101.4-9.1 99.8-5.98 98.2-2.85 95.62-1.13 93.05 0.6 90.05 0.6L90.05 0.6Q87.75 0.6 85.75-0.33 83.75-1.25 82.45-2.45L82.45-2.45 82.45 11ZM89.15-3.4L89.15-3.4Q92.55-3.4 94.67-6.08 96.8-8.75 96.8-13.1L96.8-13.1Q96.8-16.1 95.72-18.25 94.65-20.4 92.87-21.55 91.09-22.7 88.95-22.7L88.95-22.7Q86.8-22.7 85.07-21.63 83.34-20.55 82.45-19.3L82.45-19.3 82.45-6.5Q83.75-5.15 85.45-4.28 87.15-3.4 89.15-3.4ZM118.59 0.6L118.59 0.6Q114.89 0.6 111.94-1.13 108.99-2.85 107.32-5.93 105.64-9 105.64-13L105.64-13Q105.64-17.2 107.34-20.25 109.04-23.3 111.99-24.95 114.94-26.6 118.59-26.6L118.59-26.6Q122.24-26.6 125.17-24.95 128.09-23.3 129.82-20.28 131.54-17.25 131.54-13.1L131.54-13.1Q131.54-8.95 129.84-5.88 128.14-2.8 125.22-1.1 122.29 0.6 118.59 0.6ZM118.59-3.4L118.59-3.4Q122.54-3.4 124.74-6.08 126.94-8.75 126.94-13L126.94-13Q126.94-15.6 125.84-17.78 124.74-19.95 122.87-21.28 120.99-22.6 118.59-22.6L118.59-22.6Q114.64-22.6 112.44-20 110.24-17.4 110.24-13.1L110.24-13.1Q110.24-10.5 111.34-8.28 112.44-6.05 114.32-4.73 116.19-3.4 118.59-3.4ZM147.44 0L142.49 0 134.29-24.8 138.44-26.25 145.14-5.1 151.24-24.15 156.09-24.15 162.04-5.1 168.69-26.25 172.69-24.8 164.44 0 159.49 0 153.49-19.35 147.44 0ZM187.84 0.6L187.84 0.6Q182.24 0.6 178.96-2.98 175.69-6.55 175.69-13L175.69-13Q175.69-16.9 177.16-19.98 178.64-23.05 181.29-24.83 183.94-26.6 187.44-26.6L187.44-26.6Q191.19-26.6 193.66-24.98 196.14-23.35 197.39-20.6 198.64-17.85 198.64-14.55L198.64-14.55Q198.64-12.8 198.49-11.15L198.49-11.15 180.29-11.15Q180.74-7.5 182.84-5.45 184.94-3.4 188.39-3.4L188.39-3.4Q190.64-3.4 192.44-3.88 194.24-4.35 195.89-5.1L195.89-5.1 196.94-1.25Q195.14-0.45 192.89 0.08 190.64 0.6 187.84 0.6ZM180.24-14.8L180.24-14.8 194.49-14.8Q194.49-18.6 192.59-20.65 190.69-22.7 187.34-22.7L187.34-22.7Q184.44-22.7 182.54-20.68 180.64-18.65 180.24-14.8ZM209.14 0L204.64 0 204.64-26 208.99-26 208.99-20.35Q209.64-22 210.74-23.43 211.84-24.85 213.49-25.73 215.14-26.6 217.34-26.6L217.34-26.6Q218.09-26.6 218.84-26.53 219.59-26.45 220.09-26.3L220.09-26.3 218.74-21.65Q217.79-22.05 216.49-22.05L216.49-22.05Q214.64-22.05 212.96-21 211.29-19.95 210.21-17.75 209.14-15.55 209.14-12.15L209.14-12.15 209.14 0ZM229.08 0L224.58 0 224.58-26 229.08-26 229.08 0ZM226.83-30.45L226.83-30.45Q225.53-30.45 224.61-31.4 223.68-32.35 223.68-33.6L223.68-33.6Q223.68-35.05 224.53-35.9 225.38-36.75 226.83-36.75L226.83-36.75Q228.13-36.75 229.06-35.83 229.98-34.9 229.98-33.6L229.98-33.6Q229.98-32.2 229.13-31.33 228.28-30.45 226.83-30.45ZM241.58 0L237.08 0 237.08-26 241.43-26 241.43-21.65Q242.83-23.75 245.01-25.18 247.18-26.6 250.18-26.6L250.18-26.6Q254.58-26.6 256.76-23.95 258.93-21.3 258.93-16.95L258.93-16.95 258.93 0 254.43 0 254.43-16.45Q254.43-19.25 253.11-20.95 251.78-22.65 249.43-22.65L249.43-22.65Q247.13-22.65 245.08-21.03 243.03-19.4 241.58-17.2L241.58-17.2 241.58 0ZM276.23 11.6L276.23 11.6Q273.93 11.6 271.75 11.05 269.58 10.5 267.88 9.4L267.88 9.4 269.53 5.5Q270.73 6.45 272.33 7.08 273.93 7.7 276.23 7.7L276.23 7.7Q279.78 7.7 281.8 5.83 283.83 3.95 283.83-0.15L283.83-0.15 283.83-3.35Q282.83-2.15 280.95-1.07 279.08 0 276.48 0L276.48 0Q273.53 0 270.88-1.53 268.23-3.05 266.58-6 264.93-8.95 264.93-13.1L264.93-13.1Q264.93-17 266.55-20.05 268.18-23.1 270.93-24.85 273.68-26.6 276.98-26.6L276.98-26.6Q279.18-26.6 280.98-25.85 282.78-25.1 284.08-24L284.08-24 284.08-26 288.18-26 288.18-0.6Q288.18 3.7 286.68 6.4 285.18 9.1 282.5 10.35 279.83 11.6 276.23 11.6ZM277.48-4L277.48-4Q279.48-4 281.08-4.9 282.68-5.8 283.68-7L283.68-7 283.68-20.6Q282.58-21.4 281.03-22.05 279.48-22.7 277.43-22.7L277.43-22.7Q275.38-22.7 273.58-21.6 271.78-20.5 270.65-18.43 269.53-16.35 269.53-13.35L269.53-13.35Q269.53-10.5 270.65-8.4 271.78-6.3 273.58-5.15 275.38-4 277.48-4ZM316.17 0L311.42 0 311.42-34.9Q313.47-35.15 315.95-35.27 318.42-35.4 321.07-35.4L321.07-35.4Q325.42-35.4 328.47-34.02 331.52-32.65 333.12-30.25 334.72-27.85 334.72-24.75L334.72-24.75Q334.72-21 332.87-18.4 331.02-15.8 327.72-14.43 324.42-13.05 320.07-13.05L320.07-13.05Q317.97-13.05 316.17-13.2L316.17-13.2 316.17 0ZM320.67-17L320.67-17Q325.12-17 327.57-19 330.02-21 330.02-24.35L330.02-24.35Q330.02-27.6 327.67-29.5 325.32-31.4 320.97-31.4L320.97-31.4Q319.62-31.4 318.42-31.35 317.22-31.3 316.17-31.2L316.17-31.2 316.17-17.25Q316.97-17.15 318.12-17.07 319.27-17 320.67-17ZM349.62 0.6L349.62 0.6Q344.02 0.6 340.75-2.98 337.47-6.55 337.47-13L337.47-13Q337.47-16.9 338.95-19.98 340.42-23.05 343.07-24.83 345.72-26.6 349.22-26.6L349.22-26.6Q352.97-26.6 355.45-24.98 357.92-23.35 359.17-20.6 360.42-17.85 360.42-14.55L360.42-14.55Q360.42-12.8 360.27-11.15L360.27-11.15 342.07-11.15Q342.52-7.5 344.62-5.45 346.72-3.4 350.17-3.4L350.17-3.4Q352.42-3.4 354.22-3.88 356.02-4.35 357.67-5.1L357.67-5.1 358.72-1.25Q356.92-0.45 354.67 0.08 352.42 0.6 349.62 0.6ZM342.02-14.8L342.02-14.8 356.27-14.8Q356.27-18.6 354.37-20.65 352.47-22.7 349.12-22.7L349.12-22.7Q346.22-22.7 344.32-20.68 342.42-18.65 342.02-14.8ZM376.82 0.6L376.82 0.6Q371.22 0.6 367.94-2.98 364.67-6.55 364.67-13L364.67-13Q364.67-16.9 366.14-19.98 367.62-23.05 370.27-24.83 372.92-26.6 376.42-26.6L376.42-26.6Q380.17-26.6 382.64-24.98 385.12-23.35 386.37-20.6 387.62-17.85 387.62-14.55L387.62-14.55Q387.62-12.8 387.47-11.15L387.47-11.15 369.27-11.15Q369.72-7.5 371.82-5.45 373.92-3.4 377.37-3.4L377.37-3.4Q379.62-3.4 381.42-3.88 383.22-4.35 384.87-5.1L384.87-5.1 385.92-1.25Q384.12-0.45 381.87 0.08 379.62 0.6 376.82 0.6ZM369.22-14.8L369.22-14.8 383.47-14.8Q383.47-18.6 381.57-20.65 379.67-22.7 376.32-22.7L376.32-22.7Q373.42-22.7 371.52-20.68 369.62-18.65 369.22-14.8ZM398.12 0L393.62 0 393.62-26 397.97-26 397.97-20.35Q398.62-22 399.72-23.43 400.82-24.85 402.47-25.73 404.12-26.6 406.32-26.6L406.32-26.6Q407.07-26.6 407.82-26.53 408.57-26.45 409.07-26.3L409.07-26.3 407.72-21.65Q406.77-22.05 405.47-22.05L405.47-22.05Q403.62-22.05 401.94-21 400.27-19.95 399.19-17.75 398.12-15.55 398.12-12.15L398.12-12.15 398.12 0ZM449.86 0L429.06 0 429.06-35 433.81-35 433.81-4.25 449.86-4.25 449.86 0ZM464.51 0.6L464.51 0.6Q458.91 0.6 455.63-2.98 452.36-6.55 452.36-13L452.36-13Q452.36-16.9 453.83-19.98 455.31-23.05 457.96-24.83 460.61-26.6 464.11-26.6L464.11-26.6Q467.86-26.6 470.33-24.98 472.81-23.35 474.06-20.6 475.31-17.85 475.31-14.55L475.31-14.55Q475.31-12.8 475.16-11.15L475.16-11.15 456.96-11.15Q457.41-7.5 459.51-5.45 461.61-3.4 465.06-3.4L465.06-3.4Q467.31-3.4 469.11-3.88 470.91-4.35 472.56-5.1L472.56-5.1 473.61-1.25Q471.81-0.45 469.56 0.08 467.31 0.6 464.51 0.6ZM456.91-14.8L456.91-14.8 471.16-14.8Q471.16-18.6 469.26-20.65 467.36-22.7 464.01-22.7L464.01-22.7Q461.11-22.7 459.21-20.68 457.31-18.65 456.91-14.8ZM491.26 0.6L491.26 0.6Q488.01 0.6 485.36-1.05 482.71-2.7 481.13-5.73 479.56-8.75 479.56-12.85L479.56-12.85Q479.56-16.75 481.13-19.85 482.71-22.95 485.48-24.78 488.26-26.6 491.86-26.6L491.86-26.6Q494.11-26.6 495.93-25.83 497.76-25.05 499.11-23.9L499.11-23.9 499.11-26 503.21-26 503.21-6.3Q503.21-4.4 504.13-3.83 505.06-3.25 506.16-3.25L506.16-3.25 505.21 0.25Q500.41 0.25 499.41-3.65L499.41-3.65Q498.26-2.05 496.28-0.73 494.31 0.6 491.26 0.6ZM492.26-3.4L492.26-3.4Q494.16-3.4 495.86-4.33 497.56-5.25 498.71-6.65L498.71-6.65 498.71-20.6Q497.36-21.55 495.73-22.13 494.11-22.7 492.31-22.7L492.31-22.7Q489.91-22.7 488.08-21.48 486.26-20.25 485.21-18.07 484.16-15.9 484.16-13L484.16-13Q484.16-10.2 485.21-8.03 486.26-5.85 488.11-4.63 489.96-3.4 492.26-3.4ZM516.65 0L512.15 0 512.15-26 516.5-26 516.5-20.35Q517.15-22 518.25-23.43 519.35-24.85 521-25.73 522.65-26.6 524.85-26.6L524.85-26.6Q525.6-26.6 526.35-26.53 527.1-26.45 527.6-26.3L527.6-26.3 526.25-21.65Q525.3-22.05 524-22.05L524-22.05Q522.15-22.05 520.48-21 518.8-19.95 517.73-17.75 516.65-15.55 516.65-12.15L516.65-12.15 516.65 0ZM536.6 0L532.1 0 532.1-26 536.45-26 536.45-21.65Q537.85-23.75 540.02-25.18 542.2-26.6 545.2-26.6L545.2-26.6Q549.6-26.6 551.77-23.95 553.95-21.3 553.95-16.95L553.95-16.95 553.95 0 549.45 0 549.45-16.45Q549.45-19.25 548.13-20.95 546.8-22.65 544.45-22.65L544.45-22.65Q542.15-22.65 540.1-21.03 538.05-19.4 536.6-17.2L536.6-17.2 536.6 0ZM566.2 0L561.7 0 561.7-26 566.2-26 566.2 0ZM563.95-30.45L563.95-30.45Q562.65-30.45 561.72-31.4 560.8-32.35 560.8-33.6L560.8-33.6Q560.8-35.05 561.65-35.9 562.5-36.75 563.95-36.75L563.95-36.75Q565.25-36.75 566.17-35.83 567.1-34.9 567.1-33.6L567.1-33.6Q567.1-32.2 566.25-31.33 565.4-30.45 563.95-30.45ZM578.69 0L574.19 0 574.19-26 578.54-26 578.54-21.65Q579.94-23.75 582.12-25.18 584.29-26.6 587.29-26.6L587.29-26.6Q591.69-26.6 593.87-23.95 596.04-21.3 596.04-16.95L596.04-16.95 596.04 0 591.54 0 591.54-16.45Q591.54-19.25 590.22-20.95 588.89-22.65 586.54-22.65L586.54-22.65Q584.24-22.65 582.19-21.03 580.14-19.4 578.69-17.2L578.69-17.2 578.69 0ZM613.34 11.6L613.34 11.6Q611.04 11.6 608.87 11.05 606.69 10.5 604.99 9.4L604.99 9.4 606.64 5.5Q607.84 6.45 609.44 7.08 611.04 7.7 613.34 7.7L613.34 7.7Q616.89 7.7 618.92 5.83 620.94 3.95 620.94-0.15L620.94-0.15 620.94-3.35Q619.94-2.15 618.07-1.07 616.19 0 613.59 0L613.59 0Q610.64 0 607.99-1.53 605.34-3.05 603.69-6 602.04-8.95 602.04-13.1L602.04-13.1Q602.04-17 603.67-20.05 605.29-23.1 608.04-24.85 610.79-26.6 614.09-26.6L614.09-26.6Q616.29-26.6 618.09-25.85 619.89-25.1 621.19-24L621.19-24 621.19-26 625.29-26 625.29-0.6Q625.29 3.7 623.79 6.4 622.29 9.1 619.62 10.35 616.94 11.6 613.34 11.6ZM614.59-4L614.59-4Q616.59-4 618.19-4.9 619.79-5.8 620.79-7L620.79-7 620.79-20.6Q619.69-21.4 618.14-22.05 616.59-22.7 614.54-22.7L614.54-22.7Q612.49-22.7 610.69-21.6 608.89-20.5 607.77-18.43 606.64-16.35 606.64-13.35L606.64-13.35Q606.64-10.5 607.77-8.4 608.89-6.3 610.69-5.15 612.49-4 614.59-4ZM632.99 8L632.99 8 630.54 6.6Q632.54 4.05 633.76 1.45 634.99-1.15 635.64-4.5L635.64-4.5 640.04-3.25Q639.54 0.55 637.66 3.4 635.79 6.25 632.99 8ZM678.03 0.6L678.03 0.6Q674.13 0.6 671.08-0.83 668.03-2.25 665.91-4.73 663.78-7.2 662.66-10.5 661.53-13.8 661.53-17.55L661.53-17.55Q661.53-22.7 663.51-26.78 665.48-30.85 669.18-33.23 672.88-35.6 678.03-35.6L678.03-35.6Q681.88-35.6 684.96-34.2 688.03-32.8 690.18-30.3 692.33-27.8 693.46-24.55 694.58-21.3 694.58-17.55L694.58-17.55Q694.58-13.8 693.46-10.5 692.33-7.2 690.18-4.73 688.03-2.25 684.98-0.83 681.93 0.6 678.03 0.6ZM678.03-3.5L678.03-3.5Q681.88-3.5 684.48-5.35 687.08-7.2 688.41-10.38 689.73-13.55 689.73-17.55L689.73-17.55Q689.73-20.25 688.93-22.75 688.13-25.25 686.63-27.23 685.13-29.2 682.96-30.35 680.78-31.5 678.03-31.5L678.03-31.5Q674.38-31.5 671.76-29.65 669.13-27.8 667.76-24.65 666.38-21.5 666.38-17.55L666.38-17.55Q666.38-14.85 667.16-12.33 667.93-9.8 669.43-7.8 670.93-5.8 673.11-4.65 675.28-3.5 678.03-3.5ZM705.58 0L701.08 0 701.08-26 705.43-26 705.43-21.65Q706.83-23.75 709.01-25.18 711.18-26.6 714.18-26.6L714.18-26.6Q718.58-26.6 720.76-23.95 722.93-21.3 722.93-16.95L722.93-16.95 722.93 0 718.43 0 718.43-16.45Q718.43-19.25 717.11-20.95 715.78-22.65 713.43-22.65L713.43-22.65Q711.13-22.65 709.08-21.03 707.03-19.4 705.58-17.2L705.58-17.2 705.58 0ZM741.08 0.6L741.08 0.6Q735.48 0.6 732.2-2.98 728.93-6.55 728.93-13L728.93-13Q728.93-16.9 730.4-19.98 731.88-23.05 734.53-24.83 737.18-26.6 740.68-26.6L740.68-26.6Q744.43-26.6 746.9-24.98 749.38-23.35 750.63-20.6 751.88-17.85 751.88-14.55L751.88-14.55Q751.88-12.8 751.73-11.15L751.73-11.15 733.53-11.15Q733.98-7.5 736.08-5.45 738.18-3.4 741.63-3.4L741.63-3.4Q743.88-3.4 745.68-3.88 747.48-4.35 749.13-5.1L749.13-5.1 750.18-1.25Q748.38-0.45 746.13 0.08 743.88 0.6 741.08 0.6ZM733.48-14.8L733.48-14.8 747.73-14.8Q747.73-18.6 745.83-20.65 743.93-22.7 740.58-22.7L740.58-22.7Q737.68-22.7 735.78-20.68 733.88-18.65 733.48-14.8ZM798.22-1.5L793.77 0.6 789.42-8.9Q787.77-12.45 785.27-13.95 782.77-15.45 778.87-15.45L778.87-15.45 778.12-15.45 778.12 0 773.37 0 773.37-34.9Q776.02-35.15 778.45-35.27 780.87-35.4 783.62-35.4L783.62-35.4Q790.02-35.4 793.25-32.8 796.47-30.2 796.47-26.1L796.47-26.1Q796.47-22.45 794.3-20.23 792.12-18 788.02-16.9L788.02-16.9Q789.37-16.3 790.42-15.48 791.47-14.65 792.45-13.28 793.42-11.9 794.42-9.7L794.42-9.7 798.22-1.5ZM778.12-31.2L778.12-19.45 783.62-19.45Q787.22-19.45 789.47-21.05 791.72-22.65 791.72-25.65L791.72-25.65Q791.72-28.15 789.62-29.78 787.52-31.4 783.62-31.4L783.62-31.4Q781.92-31.4 780.57-31.35 779.22-31.3 778.12-31.2L778.12-31.2ZM814.12 0.6L814.12 0.6Q808.52 0.6 805.25-2.98 801.97-6.55 801.97-13L801.97-13Q801.97-16.9 803.45-19.98 804.92-23.05 807.57-24.83 810.22-26.6 813.72-26.6L813.72-26.6Q817.47-26.6 819.95-24.98 822.42-23.35 823.67-20.6 824.92-17.85 824.92-14.55L824.92-14.55Q824.92-12.8 824.77-11.15L824.77-11.15 806.57-11.15Q807.02-7.5 809.12-5.45 811.22-3.4 814.67-3.4L814.67-3.4Q816.92-3.4 818.72-3.88 820.52-4.35 822.17-5.1L822.17-5.1 823.22-1.25Q821.42-0.45 819.17 0.08 816.92 0.6 814.12 0.6ZM806.52-14.8L806.52-14.8 820.77-14.8Q820.77-18.6 818.87-20.65 816.97-22.7 813.62-22.7L813.62-22.7Q810.72-22.7 808.82-20.68 806.92-18.65 806.52-14.8ZM842.57 0L837.87 0 827.42-24.8 831.52-26.5 840.37-5.1 849.22-26.5 853.07-24.8 842.57 0ZM862.07 0L857.57 0 857.57-26 862.07-26 862.07 0ZM859.82-30.45L859.82-30.45Q858.52-30.45 857.59-31.4 856.67-32.35 856.67-33.6L856.67-33.6Q856.67-35.05 857.52-35.9 858.37-36.75 859.82-36.75L859.82-36.75Q861.12-36.75 862.04-35.83 862.97-34.9 862.97-33.6L862.97-33.6Q862.97-32.2 862.12-31.33 861.27-30.45 859.82-30.45ZM880.46 0.6L880.46 0.6Q874.86 0.6 871.59-2.98 868.31-6.55 868.31-13L868.31-13Q868.31-16.9 869.79-19.98 871.26-23.05 873.91-24.83 876.56-26.6 880.06-26.6L880.06-26.6Q883.81-26.6 886.29-24.98 888.76-23.35 890.01-20.6 891.26-17.85 891.26-14.55L891.26-14.55Q891.26-12.8 891.11-11.15L891.11-11.15 872.91-11.15Q873.36-7.5 875.46-5.45 877.56-3.4 881.01-3.4L881.01-3.4Q883.26-3.4 885.06-3.88 886.86-4.35 888.51-5.1L888.51-5.1 889.56-1.25Q887.76-0.45 885.51 0.08 883.26 0.6 880.46 0.6ZM872.86-14.8L872.86-14.8 887.11-14.8Q887.11-18.6 885.21-20.65 883.31-22.7 879.96-22.7L879.96-22.7Q877.06-22.7 875.16-20.68 873.26-18.65 872.86-14.8ZM907.66 0L902.71 0 894.51-24.8 898.66-26.25 905.36-5.1 911.46-24.15 916.31-24.15 922.26-5.1 928.91-26.25 932.91-24.8 924.66 0 919.71 0 913.71-19.35 907.66 0ZM963.11 0.6L963.11 0.6Q959.86 0.6 957.21-1.05 954.56-2.7 952.98-5.73 951.41-8.75 951.41-12.85L951.41-12.85Q951.41-16.75 952.98-19.85 954.56-22.95 957.33-24.78 960.11-26.6 963.71-26.6L963.71-26.6Q965.96-26.6 967.78-25.83 969.61-25.05 970.96-23.9L970.96-23.9 970.96-26 975.06-26 975.06-6.3Q975.06-4.4 975.98-3.83 976.91-3.25 978.01-3.25L978.01-3.25 977.06 0.25Q972.26 0.25 971.26-3.65L971.26-3.65Q970.11-2.05 968.13-0.73 966.16 0.6 963.11 0.6ZM964.11-3.4L964.11-3.4Q966.01-3.4 967.71-4.33 969.41-5.25 970.56-6.65L970.56-6.65 970.56-20.6Q969.21-21.55 967.58-22.13 965.96-22.7 964.16-22.7L964.16-22.7Q961.76-22.7 959.93-21.48 958.11-20.25 957.06-18.07 956.01-15.9 956.01-13L956.01-13Q956.01-10.2 957.06-8.03 958.11-5.85 959.96-4.63 961.81-3.4 964.11-3.4ZM993.1 0.6L993.1 0.6Q989.35 0.6 987.18-1.88 985-4.35 985-8.95L985-8.95 985-21.15 980.5-21.15 980.5-25.05 985.1-25.05 986.05-33.25 989.5-33.25 989.5-25.05 996.7-25.05 996.7-21.15 989.5-21.15 989.5-8.6Q989.5-5.7 990.73-4.55 991.95-3.4 993.65-3.4L993.65-3.4Q994.9-3.4 996.03-3.8 997.15-4.2 998.1-4.75L998.1-4.75 999.35-1.15Q998.35-0.55 996.65 0.03 994.95 0.6 993.1 0.6ZM1028.8 0.6L1028.8 0.6Q1025.55 0.6 1022.9-1.05 1020.25-2.7 1018.67-5.73 1017.1-8.75 1017.1-12.85L1017.1-12.85Q1017.1-16.75 1018.67-19.85 1020.25-22.95 1023.02-24.78 1025.8-26.6 1029.4-26.6L1029.4-26.6Q1031.65-26.6 1033.47-25.83 1035.3-25.05 1036.65-23.9L1036.65-23.9 1036.65-26 1040.75-26 1040.75-6.3Q1040.75-4.4 1041.67-3.83 1042.6-3.25 1043.7-3.25L1043.7-3.25 1042.75 0.25Q1037.95 0.25 1036.95-3.65L1036.95-3.65Q1035.8-2.05 1033.82-0.73 1031.85 0.6 1028.8 0.6ZM1029.8-3.4L1029.8-3.4Q1031.7-3.4 1033.4-4.33 1035.1-5.25 1036.25-6.65L1036.25-6.65 1036.25-20.6Q1034.9-21.55 1033.27-22.13 1031.65-22.7 1029.85-22.7L1029.85-22.7Q1027.45-22.7 1025.62-21.48 1023.8-20.25 1022.75-18.07 1021.7-15.9 1021.7-13L1021.7-13Q1021.7-10.2 1022.75-8.03 1023.8-5.85 1025.65-4.63 1027.5-3.4 1029.8-3.4ZM1076.69 0L1071.94 0 1071.94-30.8 1061.19-30.8 1061.19-35 1087.44-35 1087.44-30.8 1076.69-30.8 1076.69 0ZM1096.44 0L1091.94 0 1091.94-26 1096.44-26 1096.44 0ZM1094.19-30.45L1094.19-30.45Q1092.89-30.45 1091.97-31.4 1091.04-32.35 1091.04-33.6L1091.04-33.6Q1091.04-35.05 1091.89-35.9 1092.74-36.75 1094.19-36.75L1094.19-36.75Q1095.49-36.75 1096.42-35.83 1097.34-34.9 1097.34-33.6L1097.34-33.6Q1097.34-32.2 1096.49-31.33 1095.64-30.45 1094.19-30.45ZM1108.94 0L1104.44 0 1104.44-26 1108.79-26 1108.79-21.65Q1110.19-23.75 1112.34-25.18 1114.49-26.6 1117.24-26.6L1117.24-26.6Q1120.34-26.6 1122.31-25.1 1124.29-23.6 1125.09-21.1L1125.09-21.1Q1126.64-23.4 1128.76-25 1130.89-26.6 1134.04-26.6L1134.04-26.6Q1138.29-26.6 1140.36-23.93 1142.44-21.25 1142.44-16.95L1142.44-16.95 1142.44 0 1137.94 0 1137.94-16.6Q1137.94-19.3 1136.69-20.98 1135.44-22.65 1133.24-22.65L1133.24-22.65Q1130.99-22.65 1129.06-20.98 1127.14-19.3 1125.69-17.05L1125.69-17.05 1125.69 0 1121.19 0 1121.19-16.6Q1121.19-19.3 1119.94-20.98 1118.69-22.65 1116.49-22.65L1116.49-22.65Q1114.29-22.65 1112.34-21.03 1110.39-19.4 1108.94-17.2L1108.94-17.2 1108.94 0ZM1160.59 0.6L1160.59 0.6Q1154.99 0.6 1151.71-2.98 1148.44-6.55 1148.44-13L1148.44-13Q1148.44-16.9 1149.91-19.98 1151.39-23.05 1154.04-24.83 1156.69-26.6 1160.19-26.6L1160.19-26.6Q1163.94-26.6 1166.41-24.98 1168.89-23.35 1170.14-20.6 1171.39-17.85 1171.39-14.55L1171.39-14.55Q1171.39-12.8 1171.24-11.15L1171.24-11.15 1153.04-11.15Q1153.49-7.5 1155.59-5.45 1157.69-3.4 1161.14-3.4L1161.14-3.4Q1163.39-3.4 1165.19-3.88 1166.99-4.35 1168.64-5.1L1168.64-5.1 1169.69-1.25Q1167.89-0.45 1165.64 0.08 1163.39 0.6 1160.59 0.6ZM1152.99-14.8L1152.99-14.8 1167.24-14.8Q1167.24-18.6 1165.34-20.65 1163.44-22.7 1160.09-22.7L1160.09-22.7Q1157.19-22.7 1155.29-20.68 1153.39-18.65 1152.99-14.8Z" opacity="1" transform="matrix(1,0,0,1,0,0)" fill="#130912" class="slogan-text-1" data-fill-palette-color="secondary" id="text-1"></path></svg></g></svg></g></svg></g></svg></g><g transform="matrix(1,0,0,1,407.250852516,0)"><svg viewBox="0 0 106.87334400618059 139.33375466277363" height="139.33375466277363" width="106.87334400618059"><g><svg xmlns="http://www.w3.org/2000/svg" xmlns:xlink="http://www.w3.org/1999/xlink" version="1.1" x="0" y="0" viewBox="4.228 0.5 24.545 32" enable-background="new 0 0 33 33" xml:space="preserve" height="139.33375466277363" width="106.87334400618059" class="icon-icon-0" data-fill-palette-color="accent" id="icon-0"><g fill="#444342" data-fill-palette-color="accent"><polygon points="22.108,7.104 22.108,7.104 22.108,7.104 22.108,7.104 22.108,7.104 22.108,7.104  " fill="#444342" data-fill-palette-color="accent"></polygon><path d="M4.228 0.5V32.5H20.832L22.609 30.725 23.148 30.186 26.457 26.875 26.996 26.336 28.773 24.561V0.5zM20.831 24.561V30.186H6.003V2.814H26.995V24.56H20.831z" fill="#444342" data-fill-palette-color="accent"></path><g fill="#444342" data-fill-palette-color="accent"><rect x="9.597" y="5.854" width="13.982" height="0.939" fill="#444342" data-fill-palette-color="accent"></rect></g><g fill="#444342" data-fill-palette-color="accent"><rect x="9.597" y="9.669" width="13.982" height="0.936" fill="#444342" data-fill-palette-color="accent"></rect></g><g fill="#444342" data-fill-palette-color="accent"><rect x="9.597" y="13.482" width="13.982" height="0.935" fill="#444342" data-fill-palette-color="accent"></rect></g><g fill="#444342" data-fill-palette-color="accent"><rect x="9.597" y="17.294" width="7.078" height="0.935" fill="#444342" data-fill-palette-color="accent"></rect></g><g fill="#444342" data-fill-palette-color="accent"><path d="M13.85 22.223A1.315 1.315 0 0 0 12.271 20.642 1.316 1.316 0 0 0 10.035 20.642 1.314 1.314 0 0 0 8.459 22.223 1.31 1.31 0 0 0 7.834 23.34C7.834 23.585 7.901 23.811 8.019 24.006 8.127 24.191 8.277 24.348 8.46 24.458 8.358 24.89 8.471 25.357 8.806 25.688A1.32 1.32 0 0 0 10.036 26.037C10.268 26.41 10.682 26.66 11.156 26.66 11.381 26.66 11.595 26.601 11.781 26.498L11.812 26.484C11.997 26.375 12.156 26.219 12.271 26.037 12.494 26.087 12.726 26.08 12.946 26.019 12.948 26.016 12.951 26.016 12.955 26.016 13.153 25.953 13.344 25.845 13.501 25.688A1.32 1.32 0 0 0 13.85 24.458C14.033 24.348 14.183 24.19 14.291 24.006A1.305 1.305 0 0 0 13.85 22.223M11.155 25.268A1.92 1.92 0 0 1 9.351 24.006 2 2 0 0 1 9.227 23.34 1.927 1.927 0 0 1 13.081 23.34C13.081 23.574 13.031 23.799 12.955 24.006A1.92 1.92 0 0 1 11.155 25.268" fill="#444342" data-fill-palette-color="accent"></path><path d="M9.828 26.307C9.608 26.362 9.374 26.35 9.156 26.287L7.833 28.224 9.099 28.017 9.819 29.077 10.32 26.771 10.289 26.757A1.35 1.35 0 0 1 9.828 26.307" fill="#444342" data-fill-palette-color="accent"></path><path d="M12.478 26.307C12.363 26.495 12.206 26.647 12.017 26.757L11.985 26.771 12.486 29.077 13.208 28.017 14.475 28.224 13.15 26.287A1.3 1.3 0 0 1 12.478 26.307" fill="#444342" data-fill-palette-color="accent"></path></g></g></svg></g></svg></g></svg></g><defs></defs></svg><rect width="395.52" height="107.1906107843393" fill="none" stroke="none" visibility="hidden"></rect></g></svg></g></svg>